# xmcd
#
# Track frame offsets:
#	150
#	12076
#	26465
#	43366
#	61707
#	75411
#	87938
#	105119
#	118674
#	133919
#	146398
#	165816
#	176599
#	191657
#	208464
#	220859
#	237435
#
# Disc length: 3379 seconds
#
# Revision: 0
# Processed by: cddbd v1.5.2PL0 Copyright (c) Steve Scherf et al.
# Submitted via: audiograbber 1.83.01
#
DISCID=df0d3111
DTITLE=BOUWALDLER MUSIKANTEN - UND WIR GEHEN WEITER
DYEAR=2011
DGENRE=Blasmusik
TTITLE0=Zuckerbaecker Marsch
TTITLE1=Soutezni
TTITLE2=Und wir gehen weiter
TTITLE3=Lana
TTITLE4=Kozlova 
TTITLE5=AHA Polka
TTITLE6=Meiner Liebsten
TTITLE7=Egerlaender Spielereien
TTITLE8=Dudacka
TTITLE9=Ruzena
TTITLE10=Rozmarne Devcatko
TTITLE11=Riviera Marsch
TTITLE12=Zwei Supermaenner
TTITLE13=Velikonocni
TTITLE14=EMA
TTITLE15=Motylek 
TTITLE16=Share My Yoke
EXTD=
EXTT0=
EXTT1=
EXTT2=
EXTT3=
EXTT4=
EXTT5=
EXTT6=
EXTT7=
EXTT8=
EXTT9=
EXTT10=
EXTT11=
EXTT12=
EXTT13=
EXTT14=
EXTT15=
EXTT16=
PLAYORDER=
